<svg width="257" height="239" viewBox="0 0 257 239" fill="none" xmlns="http://www.w3.org/2000/svg">
<path d="M232.405 231.922C232.005 231.922 231.648 231.666 231.52 231.287C229.729 225.979 228.387 224.638 223.079 222.846C222.7 222.718 222.444 222.362 222.444 221.961C222.444 221.561 222.7 221.204 223.079 221.076C228.388 219.285 229.729 217.943 231.52 212.635C231.648 212.255 232.004 212 232.405 212C232.806 212 233.162 212.255 233.29 212.635C235.082 217.943 236.423 219.284 241.731 221.076C242.11 221.204 242.366 221.561 242.366 221.961C242.366 222.362 242.11 222.718 241.731 222.846C236.423 224.638 235.082 225.979 233.29 231.287C233.162 231.666 232.806 231.922 232.405 231.922Z" fill="url(#paint0_linear_1227_504)"/>
<path opacity="0.2" d="M240 81.8889C239.719 81.8889 239.468 81.7094 239.378 81.4428C238.119 77.7122 237.176 76.7698 233.446 75.5109C233.18 75.4206 233 75.1705 233 74.8889C233 74.6075 233.18 74.3572 233.446 74.2671C237.177 73.0082 238.119 72.0656 239.378 68.3352C239.468 68.0684 239.718 67.8889 240 67.8889C240.282 67.8889 240.531 68.0684 240.622 68.3352C241.881 72.0656 242.824 73.0079 246.554 74.2671C246.82 74.3572 247 74.6075 247 74.8889C247 75.1705 246.82 75.4206 246.554 75.5109C242.823 76.7701 241.881 77.7122 240.622 81.4428C240.531 81.7094 240.281 81.8889 240 81.8889Z" fill="url(#paint1_linear_1227_504)"/>
<path opacity="0.2" d="M90.4443 21C90.163 21 89.9123 20.8205 89.8223 20.5539C88.5634 16.8233 87.6207 15.8809 83.8904 14.622C83.6241 14.5317 83.4443 14.2816 83.4443 14C83.4443 13.7186 83.6241 13.4683 83.8904 13.3782C87.621 12.1193 88.5634 11.1767 89.8223 7.44635C89.9123 7.17953 90.1627 7 90.4443 7C90.726 7 90.9758 7.17953 91.0664 7.44635C92.3253 11.1767 93.2679 12.1191 96.9982 13.3782C97.2645 13.4683 97.4443 13.7186 97.4443 14C97.4443 14.2816 97.2645 14.5317 96.9982 14.622C93.2677 15.8812 92.3253 16.8233 91.0664 20.5539C90.9758 20.8205 90.7257 21 90.4443 21Z" fill="url(#paint2_linear_1227_504)"/>
<path opacity="0.2" d="M250 190.889C249.719 190.889 249.468 190.709 249.378 190.443C248.119 186.712 247.176 185.77 243.446 184.511C243.18 184.421 243 184.171 243 183.889C243 183.608 243.18 183.357 243.446 183.267C247.177 182.008 248.119 181.066 249.378 177.335C249.468 177.068 249.718 176.889 250 176.889C250.282 176.889 250.531 177.068 250.622 177.335C251.881 181.066 252.824 182.008 256.554 183.267C256.82 183.357 257 183.608 257 183.889C257 184.171 256.82 184.421 256.554 184.511C252.823 185.77 251.881 186.712 250.622 190.443C250.531 190.709 250.281 190.889 250 190.889Z" fill="url(#paint3_linear_1227_504)"/>
<path d="M212.961 47.8108C212.561 47.8108 212.204 47.5553 212.076 47.176C210.284 41.8674 208.943 40.5264 203.635 38.735C203.256 38.6065 203 38.2506 203 37.8498C203 37.4494 203.256 37.0932 203.635 36.9651C208.943 35.1737 210.284 33.8323 212.076 28.524C212.204 28.1444 212.56 27.8889 212.961 27.8889C213.362 27.8889 213.717 28.1444 213.846 28.524C215.637 33.8323 216.979 35.1733 222.287 36.9651C222.666 37.0932 222.922 37.4494 222.922 37.8498C222.922 38.2506 222.666 38.6065 222.287 38.735C216.979 40.5268 215.637 41.8674 213.846 47.176C213.717 47.5553 213.361 47.8108 212.961 47.8108Z" fill="url(#paint4_linear_1227_504)"/>
<path d="M36.4053 19.9219C36.0049 19.9219 35.6482 19.6664 35.5201 19.2871C33.7287 13.9785 32.3873 12.6375 27.0791 10.8461C26.7002 10.7176 26.4443 10.3617 26.4443 9.96095C26.4443 9.56056 26.7002 9.2043 27.0791 9.07618C32.3877 7.28477 33.7287 5.94337 35.5201 0.63516C35.6482 0.255472 36.0045 0 36.4053 0C36.8061 0 37.1615 0.255472 37.2904 0.63516C39.0818 5.94337 40.4232 7.28438 45.7314 9.07618C46.1104 9.2043 46.3662 9.56056 46.3662 9.96095C46.3662 10.3617 46.1104 10.7176 45.7314 10.8461C40.4229 12.6379 39.0818 13.9785 37.2904 19.2871C37.1615 19.6664 36.8057 19.9219 36.4053 19.9219Z" fill="url(#paint5_linear_1227_504)"/>
<path opacity="0.2" d="M19 88.8889C18.7186 88.8889 18.468 88.7094 18.378 88.4428C17.1191 84.7122 16.1764 83.7698 12.4461 82.5109C12.1798 82.4206 12 82.1705 12 81.8889C12 81.6075 12.1798 81.3572 12.4461 81.2671C16.1767 80.0082 17.1191 79.0656 18.378 75.3352C18.468 75.0684 18.7183 74.8889 19 74.8889C19.2816 74.8889 19.5314 75.0684 19.622 75.3352C20.8809 79.0656 21.8236 80.0079 25.5539 81.2671C25.8202 81.3572 26 81.6075 26 81.8889C26 82.1705 25.8202 82.4206 25.5539 82.5109C21.8233 83.7701 20.8809 84.7122 19.622 88.4428C19.5314 88.7094 19.2814 88.8889 19 88.8889Z" fill="url(#paint6_linear_1227_504)"/>
<path d="M9.96094 201.811C9.56055 201.811 9.20391 201.555 9.07578 201.176C7.28438 195.867 5.94297 194.526 0.634766 192.735C0.255859 192.606 0 192.251 0 191.85C0 191.449 0.255859 191.093 0.634766 190.965C5.94336 189.174 7.28438 187.832 9.07578 182.524C9.20391 182.144 9.56016 181.889 9.96094 181.889C10.3617 181.889 10.7172 182.144 10.8461 182.524C12.6375 187.832 13.9789 189.173 19.2871 190.965C19.666 191.093 19.9219 191.449 19.9219 191.85C19.9219 192.251 19.666 192.606 19.2871 192.735C13.9785 194.527 12.6375 195.867 10.8461 201.176C10.7172 201.555 10.3613 201.811 9.96094 201.811Z" fill="url(#paint7_linear_1227_504)"/>
<path opacity="0.2" d="M28 238.889C27.7186 238.889 27.468 238.709 27.378 238.443C26.1191 234.712 25.1764 233.77 21.4461 232.511C21.1798 232.421 21 232.171 21 231.889C21 231.608 21.1798 231.357 21.4461 231.267C25.1767 230.008 26.1191 229.066 27.378 225.335C27.468 225.068 27.7183 224.889 28 224.889C28.2816 224.889 28.5314 225.068 28.622 225.335C29.8809 229.066 30.8236 230.008 34.5539 231.267C34.8202 231.357 35 231.608 35 231.889C35 232.171 34.8202 232.421 34.5539 232.511C30.8233 233.77 29.8809 234.712 28.622 238.443C28.5314 238.709 28.2814 238.889 28 238.889Z" fill="url(#paint8_linear_1227_504)"/>
<path d="M96.6094 205.408C96.1066 205.408 95.6598 205.087 95.4992 204.611C93.2508 197.949 91.568 196.267 84.9066 194.019C84.4301 193.858 84.1094 193.411 84.1094 192.908C84.1094 192.405 84.4301 191.958 84.9063 191.798C91.5676 189.55 93.2504 187.867 95.4988 181.205C95.6598 180.729 96.1063 180.408 96.609 180.408C97.1117 180.408 97.5586 180.729 97.7191 181.205C99.9676 187.867 101.65 189.55 108.312 191.798C108.788 191.959 109.109 192.405 109.109 192.908C109.109 193.411 108.788 193.858 108.312 194.019C101.65 196.267 99.9676 197.949 97.7191 204.611C97.559 205.087 97.1121 205.408 96.6094 205.408Z" fill="#6F6F6F"/>
<path d="M202.516 193.811C202.116 193.811 201.759 193.555 201.631 193.176C199.84 187.867 198.499 186.526 193.19 184.735C192.811 184.606 192.556 184.251 192.556 183.85C192.556 183.449 192.811 183.093 193.19 182.965C198.499 181.174 199.84 179.832 201.631 174.524C201.759 174.144 202.116 173.889 202.516 173.889C202.917 173.889 203.273 174.144 203.402 174.524C205.193 179.832 206.534 181.173 211.843 182.965C212.222 183.093 212.477 183.449 212.477 183.85C212.477 184.251 212.222 184.606 211.843 184.735C206.534 186.527 205.193 187.867 203.402 193.176C203.273 193.555 202.917 193.811 202.516 193.811Z" fill="#6F6F6F"/>
<path d="M123.172 106.25C122.795 106.25 122.46 106.009 122.339 105.652C120.653 100.656 119.391 99.3941 114.395 97.7078C114.037 97.5871 113.797 97.252 113.797 96.875C113.797 96.498 114.037 96.1629 114.395 96.0422C119.391 94.3563 120.653 93.0937 122.339 88.0977C122.46 87.7406 122.795 87.5 123.172 87.5C123.549 87.5 123.884 87.7406 124.005 88.0977C125.691 93.0937 126.953 94.3559 131.949 96.0422C132.306 96.1629 132.547 96.498 132.547 96.875C132.547 97.252 132.306 97.5871 131.949 97.7078C126.953 99.3941 125.691 100.656 124.005 105.652C123.884 106.009 123.549 106.25 123.172 106.25Z" fill="white"/>
<defs>
<linearGradient id="paint0_linear_1227_504" x1="222.444" y1="212" x2="238.556" y2="222.299" gradientUnits="userSpaceOnUse">
<stop stop-color="#57B6E5"/>
<stop offset="1" stop-color="#00B37E"/>
</linearGradient>
<linearGradient id="paint1_linear_1227_504" x1="233" y1="67.8889" x2="244.323" y2="75.1263" gradientUnits="userSpaceOnUse">
<stop stop-color="#57B6E5"/>
<stop offset="1" stop-color="#00B37E"/>
</linearGradient>
<linearGradient id="paint2_linear_1227_504" x1="83.4443" y1="7" x2="94.767" y2="14.2375" gradientUnits="userSpaceOnUse">
<stop stop-color="#57B6E5"/>
<stop offset="1" stop-color="#00B37E"/>
</linearGradient>
<linearGradient id="paint3_linear_1227_504" x1="243" y1="176.889" x2="254.323" y2="184.126" gradientUnits="userSpaceOnUse">
<stop stop-color="#57B6E5"/>
<stop offset="1" stop-color="#00B37E"/>
</linearGradient>
<linearGradient id="paint4_linear_1227_504" x1="203" y1="27.8889" x2="219.112" y2="38.1877" gradientUnits="userSpaceOnUse">
<stop stop-color="#57B6E5"/>
<stop offset="1" stop-color="#00B37E"/>
</linearGradient>
<linearGradient id="paint5_linear_1227_504" x1="26.4443" y1="0" x2="42.5564" y2="10.2988" gradientUnits="userSpaceOnUse">
<stop stop-color="#57B6E5"/>
<stop offset="1" stop-color="#00B37E"/>
</linearGradient>
<linearGradient id="paint6_linear_1227_504" x1="12" y1="74.8889" x2="23.3226" y2="82.1263" gradientUnits="userSpaceOnUse">
<stop stop-color="#57B6E5"/>
<stop offset="1" stop-color="#00B37E"/>
</linearGradient>
<linearGradient id="paint7_linear_1227_504" x1="0" y1="181.889" x2="16.112" y2="192.188" gradientUnits="userSpaceOnUse">
<stop stop-color="#57B6E5"/>
<stop offset="1" stop-color="#00B37E"/>
</linearGradient>
<linearGradient id="paint8_linear_1227_504" x1="21" y1="224.889" x2="32.3226" y2="232.126" gradientUnits="userSpaceOnUse">
<stop stop-color="#57B6E5"/>
<stop offset="1" stop-color="#00B37E"/>
</linearGradient>
</defs>
</svg>
